<?xml version="1.0" standalone="no"?>
<!DOCTYPE svg PUBLIC "-//W3C//DTD SVG 20010904//EN"
 "http://www.w3.org/TR/2001/REC-SVG-20010904/DTD/svg10.dtd">
<svg version="1.0" xmlns="http://www.w3.org/2000/svg"
 width="449.000000pt" height="449.000000pt" viewBox="0 0 449.000000 449.000000"
 preserveAspectRatio="xMidYMid meet">
<metadata>
Created by potrace 1.16, written by Peter Selinger 2001-2019
</metadata>
<g transform="translate(0.000000,449.000000) scale(0.100000,-0.100000)"
fill="#000000" stroke="none">
<path d="M2050 4469 c-74 -4 -181 -16 -238 -28 -451 -94 -834 -300 -1152 -620
-405 -407 -630 -934 -647 -1516 -19 -618 217 -1209 656 -1645 315 -312 677
-509 1110 -601 136 -30 163 -32 403 -37 281 -5 383 3 568 44 158 36 302 85
449 155 242 115 413 233 597 411 189 184 313 348 429 571 175 336 255 662 255
1042 1 452 -115 845 -358 1220 -337 521 -888 883 -1501 985 -128 22 -352 29
-571 19z m788 -703 c18 -2 36 -7 40 -11 4 -5 -1 -5 -10 -2 -19 7 -25 -8 -8
-18 13 -8 3 -25 -13 -25 -8 0 -8 3 1 9 10 6 10 10 -3 21 -13 11 -14 10 -9 -5
6 -14 4 -16 -7 -10 -8 5 -7 1 4 -12 9 -11 17 -25 17 -32 0 -7 5 -9 13 -5 9 5
9 4 0 -6 -10 -11 -10 -17 0 -29 9 -11 9 -13 0 -8 -8 5 -13 -2 -15 -20 -2 -18
-8 -27 -17 -25 -12 3 -12 1 0 -14 8 -9 12 -20 11 -23 -17 -29 -21 -41 -14 -45
9 -5 11 2 14 47 1 13 8 24 15 24 9 0 10 -4 4 -10 -7 -7 -7 -15 2 -26 9 -11 9
-13 0 -8 -8 5 -13 -2 -15 -20 -2 -18 -8 -27 -17 -25 -12 3 -12 1 0 -14 8 -9
14 -18 13 -18 -12 -14 -22 -46 -16 -50 9 -5 11 2 14 47 1 13 8 24 15 24 9 0
10 -4 4 -10 -7 -7 -7 -15 2 -26 9 -11 9 -13 0 -8 -8 5 -13 -2 -15 -20 -2 -17
-8 -27 -16 -25 -9 2 -11 -2 -6 -10 15 -23 15 -50 2 -42 -8 5 -8 1 2 -12 8 -10
15 -21 17 -23 1 -2 1 14 -1 36 -2 27 1 40 10 40 7 0 10 -5 7 -11 -4 -6 -8 -33
-9 -61 -1 -27 -3 -52 -4 -55 -1 -3 -2 -9 -1 -14 1 -5 -6 -3 -15 5 -12 9 -15 9
-10 2 6 -10 -49 -13 -258 -13 l-266 0 0 -184 0 -183 153 -7 c83 -3 212 -7 284
-7 97 -1 131 -4 126 -13 -4 -6 -8 -15 -9 -21 -1 -5 -3 -17 -5 -25 -3 -9 2 -14
11 -12 12 3 12 1 3 -9 -8 -8 -9 -17 -3 -24 7 -8 5 -12 -4 -12 -8 0 -13 8 -11
19 2 10 1 16 -4 14 -4 -3 -7 -22 -6 -43 1 -21 -2 -45 -5 -53 -7 -14 21 -83 31
-77 3 1 1 -2 -3 -7 -4 -5 -2 -16 5 -25 9 -12 9 -13 0 -7 -9 5 -13 -1 -13 -21
0 -21 -3 -24 -9 -14 -6 9 -6 23 0 35 10 21 10 21 -5 2 -14 -18 -14 -22 0 -44
17 -25 12 -58 -7 -46 -8 5 -9 3 -3 -7 12 -19 12 -31 2 -46 -5 -6 -5 -14 2 -18
6 -3 7 -11 4 -17 -4 -6 -3 -8 2 -5 6 3 15 -3 22 -14 7 -10 9 -19 5 -18 -5 1
-133 1 -285 0 l-278 -1 0 -430 0 -430 -325 0 -325 0 0 1152 0 1151 578 -7
c317 -3 592 -8 610 -10z m-733 -2505 c24 -10 61 -37 83 -59 l41 -41 0 -159 0
-159 -36 -42 c-50 -60 -103 -83 -194 -89 -66 -4 -84 -1 -131 20 -174 80 -230
290 -115 439 41 54 73 77 138 100 64 23 148 19 214 -10z"/>
</g>
</svg>
